<svg xmlns="http://www.w3.org/2000/svg" viewBox="0 0 308.63 216.53"><defs><style>.cls-1,.cls-5{fill:#231f20;}.cls-1,.cls-2,.cls-3{fill-rule:evenodd;}.cls-2{fill:#00aeef;}.cls-3,.cls-4{fill:#00ab5d;}</style></defs><g id="Layer_2" data-name="Layer 2"><g id="Layer_1-2" data-name="Layer 1"><path class="cls-1" d="M133.75,5c40.07-11.5,67.08-2.86,83.51,24.41-11.21,3.81-19,7.13-25.48,12.26,11.7.92,20.23,7,26.44,15.11-9.11,4.64-17.31,10.8-25.15,17.29,4.25-6.63,11.49-12.59,21.08-17.62a41.29,41.29,0,0,0-29.09-13.08c6.21-6.07,17.69-12.31,27.21-15.42C196.8,7.68,173.23-.2,147.71,5,161.08,9.52,168.62,18,172,28.8a55.91,55.91,0,0,0-7.08-5.47C159.31,12.93,149.26,6.45,133.75,5Z"/><path class="cls-2" d="M131.43,41.4a44.2,44.2,0,0,1,2.07,5.41,48,48,0,0,1,6.42,5.71,47.22,47.22,0,0,0-1-5.71A45,45,0,0,0,131.43,41.4Z"/><path class="cls-3" d="M136.07,73.13a148.46,148.46,0,0,1-4.25,26.52,175.63,175.63,0,0,0,7-25.82C137.9,73.58,137,73.34,136.07,73.13Z"/><path class="cls-3" d="M134.18,49.14a72.27,72.27,0,0,1,2.07,19.09c1.12.25,2.22.53,3.3.85a73.35,73.35,0,0,0,.58-14.19A47.87,47.87,0,0,0,134.18,49.14Z"/><path class="cls-3" d="M150,57.72l.27.42A88.89,88.89,0,0,1,190.37,69c-9.61-7.83-20.09-11.65-33.4-12.79a64.21,64.21,0,0,1,12.12-7.48c0-1.24-.05-2.47-.12-3.7a71.62,71.62,0,0,0-19,12.65Zm25.53-11.67q0-1.74,0-3.45l1.16-.35C161.64,22.43,139.64,15.61,114,20.87c13.54,4.73,21.06,12.92,24.32,23.5a44.78,44.78,0,0,0-8-5.18C124.67,28.8,114.68,22,98.94,20.94c32.44-9.7,63.14-9,83.8,22.8C180.33,44.39,177.91,45.16,175.53,46.05Z"/><path class="cls-1" d="M134.61,60.83a60.36,60.36,0,0,0-12.75,9.11,71.89,71.89,0,0,1,33,8.82,43.83,43.83,0,0,0-15.34-8.2l-.36-.11H139l-.05,0c-1-.27-1.95-.53-3-.75h-.05a60.71,60.71,0,0,0-8.09-1.2,49.2,49.2,0,0,1,6.92-4.6C134.73,62.83,134.68,61.83,134.61,60.83Z"/><path class="cls-1" d="M111,81.88a120.71,120.71,0,0,1-3.45,21.62,141.8,141.8,0,0,0,5.69-21C112.46,82.24,111.72,82.05,111,81.88Z"/><path class="cls-2" d="M111.09,78.89c0,.51,0,1,0,1.54q1.2.27,2.4.6c.08-.5.15-1,.22-1.48C112.82,79.3,112,79.08,111.09,78.89Z"/><path class="cls-1" d="M109.58,63.3a58.09,58.09,0,0,1,1.53,14.13c.93.2,1.84.43,2.74.69a59,59,0,0,0,.42-10.26A37.87,37.87,0,0,0,109.58,63.3Z"/><path class="cls-1" d="M148.68,58.32C132,32.62,107.17,32,80.94,39.89c12.77.84,20.87,6.39,25.42,14.85a34.45,34.45,0,0,1,6.34,4c-2.65-8.5-8.72-15.09-19.62-18.9,19.67-4,38.53,1.23,50.71,17.28-.71.2-1.41.42-2.11.66,0,.94,0,1.89,0,2.84A66.84,66.84,0,0,1,148.68,58.32Z"/><path class="cls-3" d="M109.52,72.35a47.63,47.63,0,0,0-9.35,6.78A55.77,55.77,0,0,1,125.75,86a34,34,0,0,0-12.23-6.46l-.07,0c-.54-.15-1.09-.3-1.64-.43h0l-1-.23h0a48.93,48.93,0,0,0-6-.86,38.91,38.91,0,0,1,4.83-3.26C109.61,73.92,109.57,73.13,109.52,72.35Z"/><path class="cls-3" d="M121,70.12c-13-19.93-32.2-20.38-52.53-14.29,24,1.58,26.7,24.62,20.61,49.33,7.82-22.74,9.12-42.28-11.2-49.38,15.81-3.24,29.76.8,39.32,13.4-.47.13-.94.28-1.41.43,0,.73,0,1.46,0,2.2A49.58,49.58,0,0,1,121,70.12Z"/><path class="cls-1" d="M174.08,41.2A80.72,80.72,0,0,1,173,57.93c-.92-.3-1.84-.57-2.77-.83a81,81,0,0,0-1-21.15,59.43,59.43,0,0,1,4.82,5.25Zm-2,21.78a159.75,159.75,0,0,1-6.43,21.93,184.59,184.59,0,0,0,4.12-22.58C170.51,62.54,171.28,62.75,172.05,63Z"/><path class="cls-1" d="M275.35,43.08c-39,36.51-45.53,63.35-29.88,83.58l-5.52,0c-58.11-11.25-113.19-10.19-161.79-.41H74.85s2.31-23.07,20.78-14.3S268.45,45.42,275.35,43.08Z"/><path class="cls-3" d="M33.27,143.11c65.41-22.31,147.55-28,235.15-5.19A987,987,0,0,0,33.27,143.11Z"/><polygon class="cls-4" points="44.45 171.51 31.03 198.64 24.43 198.64 11.08 171.51 11.08 202.75 0 202.75 0 153.12 14.98 153.12 27.77 180.38 40.62 153.12 55.53 153.12 55.53 202.75 44.45 202.75 44.45 171.51"/><path class="cls-4" d="M99.77,197.22a21.34,21.34,0,0,1-15.16,6.1A20.1,20.1,0,0,1,70.23,198q-5.67-5.36-5.68-14.38t5.79-14.34A19.54,19.54,0,0,1,84,163.91a19.78,19.78,0,0,1,13.39,4.76q5.5,4.76,5.5,13.06v5.69H75.06a7.6,7.6,0,0,0,3.27,5.11,10.44,10.44,0,0,0,6.25,2,12.25,12.25,0,0,0,9.23-3.77l6,6.47Zm-7.66-17.4a7.56,7.56,0,0,0-2.56-5.26,8.08,8.08,0,0,0-5.36-1.84,9.58,9.58,0,0,0-5.79,1.91,7.33,7.33,0,0,0-3.05,5.19Z"/><path class="cls-4" d="M125.87,203.32q-6.78,0-12.11-5.75a20.2,20.2,0,0,1-5.32-14.27q0-8.52,5.18-14a16.29,16.29,0,0,1,12.15-5.43,14.57,14.57,0,0,1,11.36,4.9V150.06h10.65v52.7H137.13v-5a13.83,13.83,0,0,1-11.26,5.61Zm-6.71-19.6a10.61,10.61,0,0,0,2.77,7.57,8.62,8.62,0,0,0,6.46,2.94,8.08,8.08,0,0,0,6.29-2.94,11.09,11.09,0,0,0,2.59-7.6,11.62,11.62,0,0,0-2.59-7.74,8,8,0,0,0-6.36-3.09,8.27,8.27,0,0,0-6.46,3.12A11.45,11.45,0,0,0,119.16,183.72Z"/><path class="cls-5" d="M175.93,161.71a6.72,6.72,0,0,0-4.37,1.31,4.31,4.31,0,0,0-1.6,3.48,4,4,0,0,0,2,3.45q2,1.28,9,3t11,5.22q3.9,3.48,3.9,10.16a13.42,13.42,0,0,1-5,10.83q-5,4.16-13.18,4.15-11.77,0-21.23-8.73l6.61-8.1q8,7,14.84,7a7.76,7.76,0,0,0,4.79-1.31,4.22,4.22,0,0,0,1.74-3.55,4.11,4.11,0,0,0-1.85-3.55q-1.84-1.32-7.31-2.66-8.67-2.07-12.68-5.37t-4-10.36q0-7.08,5.08-10.91A20.45,20.45,0,0,1,176.28,152a30.7,30.7,0,0,1,9.95,1.7,26.76,26.76,0,0,1,8.66,4.83l-5.61,8.1A21.84,21.84,0,0,0,175.93,161.71Z"/><path class="cls-5" d="M213,182.16v20.6H202.38v-52.7H213v18.75a14.87,14.87,0,0,1,10.83-4.9A13.53,13.53,0,0,1,234,168.17q4.11,4.26,4.12,11.36v23.23H227.45V181.88q0-8.81-6.47-8.81a7.73,7.73,0,0,0-5.57,2.31Q213,177.69,213,182.16Z"/><path class="cls-5" d="M259.2,202.76H248.55V164.55H259.2v38.21Zm-9.76-43.07a6.34,6.34,0,1,1,4.43,1.81A6,6,0,0,1,249.44,159.69Z"/><path class="cls-5" d="M291.51,163.91q6.67,0,11.9,5.57a19.74,19.74,0,0,1,5.22,14,20.09,20.09,0,0,1-5.22,14.13,16.1,16.1,0,0,1-12.22,5.68,13.45,13.45,0,0,1-11.25-5.61v18.82H269.28v-52h10.66v4.26a15.79,15.79,0,0,1,11.57-4.9Zm-11.72,19.78a11.09,11.09,0,0,0,2.6,7.6,8.06,8.06,0,0,0,6.28,2.94,8.61,8.61,0,0,0,6.46-2.94,10.61,10.61,0,0,0,2.77-7.57,11.49,11.49,0,0,0-2.69-7.74,8.29,8.29,0,0,0-6.47-3.12,8,8,0,0,0-6.35,3.09A11.63,11.63,0,0,0,279.79,183.69Z"/></g></g></svg>